<?xml version="1.0" standalone="no"?>
<!DOCTYPE svg PUBLIC "-//W3C//DTD SVG 20010904//EN"
 "http://www.w3.org/TR/2001/REC-SVG-20010904/DTD/svg10.dtd">
<svg version="1.0" xmlns="http://www.w3.org/2000/svg"
 width="31.000000pt" height="25.000000pt" viewBox="0 0 31.000000 25.000000"
 preserveAspectRatio="xMidYMid meet">

<g transform="translate(0.000000,25.000000) scale(0.100000,-0.100000)"
fill="#000000" stroke="none">
<path d="M0 244 c0 -3 25 -47 56 -97 32 -51 64 -104 73 -119 9 -16 21 -28 26
-28 6 0 17 12 26 28 9 15 41 68 73 119 31 50 56 94 56 97 0 3 -70 6 -155 6
-85 0 -155 -3 -155 -6z m130 -18 c0 -3 -10 -21 -21 -41 -23 -39 -32 -37 -62
14 l-18 31 50 0 c28 0 51 -2 51 -4z m133 -27 c-30 -51 -39 -53 -62 -14 -11 20
-21 38 -21 41 0 2 23 4 51 4 l50 0 -18 -31z m-74 -31 l24 -44 -27 -43 c-30
-47 -39 -46 -70 12 l-18 35 27 46 c15 25 30 44 33 42 4 -2 18 -24 31 -48z"/>
</g>
</svg>
